# xmcd CD database file
#
# Track frame offsets:
#	150
#	14573
#	27879
#	41020
#	55475
#	66099
#	78344
#	92620
#	106959
#	119631
#	131735
#
# Disc length: 1936 seconds
#
# Revision: 0
# Processed by: cddbd v1.5.1PL2 Copyright (c) Steve Scherf et al.
# Submitted via: CDex 1.51
#
DISCID=95078e0b
DTITLE=Küsten-Blues - Küsten-Blues
DYEAR=1996
DGENRE=Blues
TTITLE0=Last Night
TTITLE1=You Got Me Dizzy
TTITLE2=Honest I Do
TTITLE3=Found Love
TTITLE4=I Ain't Got You
TTITLE5=Baby What Do You Want Me To Do
TTITLE6=Big Boss Man
TTITLE7=Shame, Shame, Shame
TTITLE8=Tell Me That You Love Me
TTITLE9=Blue Water
TTITLE10=Küsten-Blues
EXTD=YEAR: 1996
EXTT0=
EXTT1=
EXTT2=
EXTT3=
EXTT4=
EXTT5=
EXTT6=
EXTT7=
EXTT8=
EXTT9=
EXTT10=
PLAYORDER=
